# Blender v2.93.5 OBJ File: 'untitled.blend'
# www.blender.org
o Plane
v -1.000000 -0.375000 0.000000
v 1.000000 -0.375000 0.000000
v -1.000000 0.375000 -0.000000
v 1.000000 0.375000 -0.000000
v 0.375000 1.000000 -0.000000
v 0.375000 -1.000000 0.000000
v 0.375000 -0.375000 0.000000
v 0.375000 0.375000 -0.000000
v -0.375000 -1.000000 0.000000
v -0.375000 -0.375000 0.000000
v -0.375000 0.375000 -0.000000
v -0.375000 1.000000 -0.000000
vt 0.002475 0.986848
vt 0.002441 0.989746
vt 0.005371 0.989746
vt 0.007812 0.989746
vt 0.007812 0.986816
vt 0.005371 0.986816
vt 0.005371 0.984375
vt 0.002441 0.984375
vt 0.000000 0.986816
vt 0.000000 0.989746
vt 0.002441 0.992188
vt 0.005371 0.992188
vn 0.0000 -0.0000 -1.0000
s off
f 10/1/1 11/2/1 8/3/1
f 4/4/1 2/5/1 7/6/1
f 7/6/1 6/7/1 9/8/1
f 10/1/1 1/9/1 3/10/1
f 7/6/1 9/8/1 10/1/1
f 8/3/1 4/4/1 7/6/1
f 12/11/1 5/12/1 8/3/1
f 10/1/1 3/10/1 11/2/1
f 11/2/1 12/11/1 8/3/1
f 8/3/1 7/6/1 10/1/1
